<mxfile host="app.diagrams.net" modified="2021-07-13T15:27:55.196Z" agent="5.0 (X11)" etag="sTGERc43PmvI1DRe7p1a" version="14.8.6" type="github">
  <diagram id="WMnNy4mz3rsH8M8P-ZVm" name="Page-1">
    <mxGraphModel dx="1185" dy="683" grid="1" gridSize="10" guides="1" tooltips="1" connect="1" arrows="1" fold="1" page="1" pageScale="1" pageWidth="827" pageHeight="1169" math="0" shadow="0">
      <root>
        <mxCell id="0" />
        <mxCell id="1" parent="0" />
        <mxCell id="dc_me7ilWb_bvoXGBULs-14" value="" style="group" vertex="1" connectable="0" parent="1">
          <mxGeometry x="84" y="90" width="660" height="445" as="geometry" />
        </mxCell>
        <mxCell id="uwfA_egdw0QiuH8Rc5q3-1" value="" style="rounded=1;whiteSpace=wrap;html=1;fillColor=#ffe6cc;dashed=1;strokeColor=#d79b00;" vertex="1" parent="dc_me7ilWb_bvoXGBULs-14">
          <mxGeometry width="500" height="355" as="geometry" />
        </mxCell>
        <mxCell id="t2By7bpQIkrPDZWn7h1t-2" value="Nginx gateway" style="rounded=1;whiteSpace=wrap;html=1;" parent="dc_me7ilWb_bvoXGBULs-14" vertex="1">
          <mxGeometry x="130" y="265" width="270" height="40" as="geometry" />
        </mxCell>
        <mxCell id="t2By7bpQIkrPDZWn7h1t-17" style="edgeStyle=orthogonalEdgeStyle;curved=1;rounded=0;orthogonalLoop=1;jettySize=auto;html=1;exitX=0.5;exitY=0;exitDx=0;exitDy=0;entryX=0.479;entryY=1.054;entryDx=0;entryDy=0;entryPerimeter=0;strokeColor=#000000;startArrow=classic;startFill=1;" parent="dc_me7ilWb_bvoXGBULs-14" source="t2By7bpQIkrPDZWn7h1t-3" target="t2By7bpQIkrPDZWn7h1t-2" edge="1">
          <mxGeometry relative="1" as="geometry" />
        </mxCell>
        <mxCell id="t2By7bpQIkrPDZWn7h1t-3" value="&lt;div&gt;Client&lt;/div&gt;" style="rounded=1;whiteSpace=wrap;html=1;" parent="dc_me7ilWb_bvoXGBULs-14" vertex="1">
          <mxGeometry x="220" y="415" width="80" height="30" as="geometry" />
        </mxCell>
        <mxCell id="t2By7bpQIkrPDZWn7h1t-14" style="edgeStyle=orthogonalEdgeStyle;curved=1;rounded=0;orthogonalLoop=1;jettySize=auto;html=1;exitX=0.5;exitY=1;exitDx=0;exitDy=0;entryX=0.26;entryY=-0.008;entryDx=0;entryDy=0;entryPerimeter=0;strokeColor=#000000;startArrow=classic;startFill=1;" parent="dc_me7ilWb_bvoXGBULs-14" source="t2By7bpQIkrPDZWn7h1t-6" target="t2By7bpQIkrPDZWn7h1t-2" edge="1">
          <mxGeometry relative="1" as="geometry" />
        </mxCell>
        <mxCell id="t2By7bpQIkrPDZWn7h1t-18" value="&lt;div&gt;api.*&lt;/div&gt;" style="edgeLabel;html=1;align=center;verticalAlign=middle;resizable=0;points=[];" parent="t2By7bpQIkrPDZWn7h1t-14" vertex="1" connectable="0">
          <mxGeometry x="0.1441" y="-4" relative="1" as="geometry">
            <mxPoint x="15" y="21" as="offset" />
          </mxGeometry>
        </mxCell>
        <mxCell id="t2By7bpQIkrPDZWn7h1t-6" value="API" style="rounded=1;whiteSpace=wrap;html=1;" parent="dc_me7ilWb_bvoXGBULs-14" vertex="1">
          <mxGeometry x="110" y="135" width="80" height="40" as="geometry" />
        </mxCell>
        <mxCell id="t2By7bpQIkrPDZWn7h1t-15" style="edgeStyle=orthogonalEdgeStyle;curved=1;rounded=0;orthogonalLoop=1;jettySize=auto;html=1;exitX=0.5;exitY=1;exitDx=0;exitDy=0;strokeColor=#000000;startArrow=classic;startFill=1;" parent="dc_me7ilWb_bvoXGBULs-14" source="t2By7bpQIkrPDZWn7h1t-7" edge="1">
          <mxGeometry relative="1" as="geometry">
            <mxPoint x="270" y="265" as="targetPoint" />
          </mxGeometry>
        </mxCell>
        <mxCell id="t2By7bpQIkrPDZWn7h1t-19" value="&lt;div&gt;vault.*&lt;/div&gt;" style="edgeLabel;html=1;align=center;verticalAlign=middle;resizable=0;points=[];" parent="t2By7bpQIkrPDZWn7h1t-15" vertex="1" connectable="0">
          <mxGeometry x="0.3746" y="3" relative="1" as="geometry">
            <mxPoint y="10" as="offset" />
          </mxGeometry>
        </mxCell>
        <mxCell id="t2By7bpQIkrPDZWn7h1t-7" value="Vault" style="rounded=1;whiteSpace=wrap;html=1;" parent="dc_me7ilWb_bvoXGBULs-14" vertex="1">
          <mxGeometry x="220" y="135" width="90" height="40" as="geometry" />
        </mxCell>
        <mxCell id="t2By7bpQIkrPDZWn7h1t-28" style="edgeStyle=orthogonalEdgeStyle;curved=1;rounded=0;orthogonalLoop=1;jettySize=auto;html=1;exitX=1;exitY=0.5;exitDx=0;exitDy=0;entryX=0;entryY=0.5;entryDx=0;entryDy=0;startArrow=classic;startFill=1;strokeColor=#000000;" parent="dc_me7ilWb_bvoXGBULs-14" source="t2By7bpQIkrPDZWn7h1t-6" target="t2By7bpQIkrPDZWn7h1t-7" edge="1">
          <mxGeometry relative="1" as="geometry" />
        </mxCell>
        <mxCell id="t2By7bpQIkrPDZWn7h1t-16" style="edgeStyle=orthogonalEdgeStyle;curved=1;rounded=0;orthogonalLoop=1;jettySize=auto;html=1;exitX=0.5;exitY=1;exitDx=0;exitDy=0;entryX=0.793;entryY=-0.008;entryDx=0;entryDy=0;entryPerimeter=0;strokeColor=#000000;startArrow=classic;startFill=1;" parent="dc_me7ilWb_bvoXGBULs-14" source="t2By7bpQIkrPDZWn7h1t-8" target="t2By7bpQIkrPDZWn7h1t-2" edge="1">
          <mxGeometry relative="1" as="geometry" />
        </mxCell>
        <mxCell id="t2By7bpQIkrPDZWn7h1t-20" value="ipfs.*" style="edgeLabel;html=1;align=center;verticalAlign=middle;resizable=0;points=[];" parent="t2By7bpQIkrPDZWn7h1t-16" vertex="1" connectable="0">
          <mxGeometry x="0.6954" y="8" relative="1" as="geometry">
            <mxPoint x="-2" y="3" as="offset" />
          </mxGeometry>
        </mxCell>
        <mxCell id="t2By7bpQIkrPDZWn7h1t-8" value="IPFS Gateway" style="rounded=1;whiteSpace=wrap;html=1;" parent="dc_me7ilWb_bvoXGBULs-14" vertex="1">
          <mxGeometry x="350" y="135" width="110" height="40" as="geometry" />
        </mxCell>
        <mxCell id="t2By7bpQIkrPDZWn7h1t-26" style="edgeStyle=orthogonalEdgeStyle;curved=1;rounded=0;orthogonalLoop=1;jettySize=auto;html=1;exitX=1;exitY=0.5;exitDx=0;exitDy=0;entryX=0;entryY=0.5;entryDx=0;entryDy=0;strokeColor=#000000;startArrow=classic;startFill=1;" parent="dc_me7ilWb_bvoXGBULs-14" source="t2By7bpQIkrPDZWn7h1t-7" target="t2By7bpQIkrPDZWn7h1t-8" edge="1">
          <mxGeometry relative="1" as="geometry" />
        </mxCell>
        <mxCell id="t2By7bpQIkrPDZWn7h1t-22" value="IPFS" style="ellipse;shape=cloud;whiteSpace=wrap;html=1;" parent="dc_me7ilWb_bvoXGBULs-14" vertex="1">
          <mxGeometry x="580" y="130" width="80" height="50" as="geometry" />
        </mxCell>
        <mxCell id="t2By7bpQIkrPDZWn7h1t-23" style="edgeStyle=orthogonalEdgeStyle;curved=1;rounded=0;orthogonalLoop=1;jettySize=auto;html=1;exitX=1;exitY=0.5;exitDx=0;exitDy=0;entryX=0.097;entryY=0.496;entryDx=0;entryDy=0;entryPerimeter=0;strokeColor=#000000;" parent="dc_me7ilWb_bvoXGBULs-14" source="t2By7bpQIkrPDZWn7h1t-8" target="t2By7bpQIkrPDZWn7h1t-22" edge="1">
          <mxGeometry relative="1" as="geometry" />
        </mxCell>
        <mxCell id="uwfA_egdw0QiuH8Rc5q3-2" value="BENDERFACToRY" style="text;html=1;strokeColor=none;fillColor=none;align=center;verticalAlign=middle;whiteSpace=wrap;rounded=0;dashed=1;" vertex="1" parent="dc_me7ilWb_bvoXGBULs-14">
          <mxGeometry x="20" y="330" width="130" height="20" as="geometry" />
        </mxCell>
        <mxCell id="dc_me7ilWb_bvoXGBULs-2" style="edgeStyle=orthogonalEdgeStyle;curved=1;rounded=0;orthogonalLoop=1;jettySize=auto;html=1;exitX=0.5;exitY=1;exitDx=0;exitDy=0;exitPerimeter=0;entryX=0.5;entryY=0;entryDx=0;entryDy=0;startArrow=classic;startFill=1;strokeColor=#000000;" edge="1" parent="dc_me7ilWb_bvoXGBULs-14" source="dc_me7ilWb_bvoXGBULs-1" target="t2By7bpQIkrPDZWn7h1t-6">
          <mxGeometry relative="1" as="geometry" />
        </mxCell>
        <mxCell id="dc_me7ilWb_bvoXGBULs-1" value="DB" style="shape=cylinder3;whiteSpace=wrap;html=1;boundedLbl=1;backgroundOutline=1;size=15;" vertex="1" parent="dc_me7ilWb_bvoXGBULs-14">
          <mxGeometry x="120" y="50" width="60" height="55" as="geometry" />
        </mxCell>
        <mxCell id="dc_me7ilWb_bvoXGBULs-5" value="Discord" style="ellipse;shape=cloud;whiteSpace=wrap;html=1;fillColor=none;" vertex="1" parent="dc_me7ilWb_bvoXGBULs-14">
          <mxGeometry x="582.5" y="190" width="75" height="50" as="geometry" />
        </mxCell>
        <mxCell id="dc_me7ilWb_bvoXGBULs-7" style="edgeStyle=orthogonalEdgeStyle;curved=1;rounded=0;orthogonalLoop=1;jettySize=auto;html=1;exitX=0.75;exitY=1;exitDx=0;exitDy=0;entryX=0.16;entryY=0.55;entryDx=0;entryDy=0;entryPerimeter=0;startArrow=classic;startFill=1;strokeColor=#000000;" edge="1" parent="dc_me7ilWb_bvoXGBULs-14" source="t2By7bpQIkrPDZWn7h1t-7" target="dc_me7ilWb_bvoXGBULs-5">
          <mxGeometry relative="1" as="geometry">
            <Array as="points">
              <mxPoint x="287" y="218" />
              <mxPoint x="560" y="218" />
            </Array>
          </mxGeometry>
        </mxCell>
        <mxCell id="dc_me7ilWb_bvoXGBULs-8" value="Worker" style="rounded=1;whiteSpace=wrap;html=1;" vertex="1" parent="dc_me7ilWb_bvoXGBULs-14">
          <mxGeometry x="220" y="45" width="50" height="45" as="geometry" />
        </mxCell>
        <mxCell id="dc_me7ilWb_bvoXGBULs-13" style="edgeStyle=orthogonalEdgeStyle;curved=1;rounded=0;orthogonalLoop=1;jettySize=auto;html=1;exitX=0.5;exitY=0;exitDx=0;exitDy=0;entryX=0.5;entryY=1;entryDx=0;entryDy=0;startArrow=classic;startFill=1;strokeColor=#000000;" edge="1" parent="dc_me7ilWb_bvoXGBULs-14" source="t2By7bpQIkrPDZWn7h1t-7" target="dc_me7ilWb_bvoXGBULs-8">
          <mxGeometry relative="1" as="geometry" />
        </mxCell>
        <mxCell id="dc_me7ilWb_bvoXGBULs-9" value="Worker" style="rounded=1;whiteSpace=wrap;html=1;" vertex="1" parent="dc_me7ilWb_bvoXGBULs-14">
          <mxGeometry x="240" y="50" width="50" height="45" as="geometry" />
        </mxCell>
        <mxCell id="dc_me7ilWb_bvoXGBULs-12" style="edgeStyle=orthogonalEdgeStyle;curved=1;rounded=0;orthogonalLoop=1;jettySize=auto;html=1;exitX=0.5;exitY=0;exitDx=0;exitDy=0;entryX=0.5;entryY=1;entryDx=0;entryDy=0;startArrow=classic;startFill=1;strokeColor=#000000;" edge="1" parent="dc_me7ilWb_bvoXGBULs-14" source="t2By7bpQIkrPDZWn7h1t-7" target="dc_me7ilWb_bvoXGBULs-9">
          <mxGeometry relative="1" as="geometry" />
        </mxCell>
        <mxCell id="dc_me7ilWb_bvoXGBULs-10" value="Worker" style="rounded=1;whiteSpace=wrap;html=1;" vertex="1" parent="dc_me7ilWb_bvoXGBULs-14">
          <mxGeometry x="260" y="55" width="50" height="45" as="geometry" />
        </mxCell>
        <mxCell id="dc_me7ilWb_bvoXGBULs-11" style="edgeStyle=orthogonalEdgeStyle;curved=1;rounded=0;orthogonalLoop=1;jettySize=auto;html=1;exitX=0.5;exitY=0;exitDx=0;exitDy=0;entryX=0.5;entryY=1;entryDx=0;entryDy=0;startArrow=classic;startFill=1;strokeColor=#000000;" edge="1" parent="dc_me7ilWb_bvoXGBULs-14" source="t2By7bpQIkrPDZWn7h1t-7" target="dc_me7ilWb_bvoXGBULs-10">
          <mxGeometry relative="1" as="geometry" />
        </mxCell>
        <mxCell id="dc_me7ilWb_bvoXGBULs-16" value="" style="rounded=0;whiteSpace=wrap;html=1;" vertex="1" parent="1">
          <mxGeometry x="624" y="20" width="146" height="150" as="geometry" />
        </mxCell>
        <mxCell id="dc_me7ilWb_bvoXGBULs-17" value="" style="rounded=1;whiteSpace=wrap;html=1;fillColor=none;" vertex="1" parent="1">
          <mxGeometry x="644" y="40" width="36" height="20" as="geometry" />
        </mxCell>
        <mxCell id="dc_me7ilWb_bvoXGBULs-18" value="Text" style="text;html=1;strokeColor=none;fillColor=none;align=center;verticalAlign=middle;whiteSpace=wrap;rounded=0;" vertex="1" parent="1">
          <mxGeometry x="410" y="320" width="40" height="20" as="geometry" />
        </mxCell>
        <mxCell id="dc_me7ilWb_bvoXGBULs-19" value="Legend" style="text;html=1;strokeColor=none;fillColor=none;align=center;verticalAlign=middle;whiteSpace=wrap;rounded=0;" vertex="1" parent="1">
          <mxGeometry x="720" y="145" width="40" height="20" as="geometry" />
        </mxCell>
        <mxCell id="dc_me7ilWb_bvoXGBULs-20" value="&lt;div&gt;Container&lt;/div&gt;" style="text;html=1;strokeColor=none;fillColor=none;align=center;verticalAlign=middle;whiteSpace=wrap;rounded=0;" vertex="1" parent="1">
          <mxGeometry x="704" y="40" width="40" height="20" as="geometry" />
        </mxCell>
      </root>
    </mxGraphModel>
  </diagram>
</mxfile>
